<?xml version="1.0" standalone="no"?>
<!DOCTYPE svg PUBLIC "-//W3C//DTD SVG 20010904//EN"
 "http://www.w3.org/TR/2001/REC-SVG-20010904/DTD/svg10.dtd">
<svg version="1.0" xmlns="http://www.w3.org/2000/svg"
 width="334.000000pt" height="334.000000pt" viewBox="0 0 334.000000 334.000000"
 preserveAspectRatio="xMidYMid meet">
<metadata>
Created by potrace 1.14, written by Peter Selinger 2001-2017
</metadata>
<g transform="translate(0.000000,334.000000) scale(0.100000,-0.100000)"
fill="#000000" stroke="none">
<path d="M1565 3316 c-173 -58 -392 -149 -430 -178 -23 -18 -54 -49 -68 -68
-26 -37 -67 -145 -67 -178 0 -17 -13 -14 -131 30 -138 51 -189 59 -255 38
-174 -54 -268 -260 -195 -427 39 -88 85 -120 259 -182 l152 -55 0 -63 c0 -35
-3 -63 -8 -63 -4 0 -52 16 -107 35 -113 39 -131 41 -201 20 -133 -39 -196
-204 -130 -339 36 -72 62 -89 247 -156 l146 -52 2 -49 1 -49 -112 41 c-122 44
-180 50 -239 25 -112 -47 -156 -206 -95 -341 l22 -49 -40 -31 c-83 -63 -111
-181 -67 -281 12 -25 21 -50 21 -53 0 -4 -18 -17 -39 -29 -77 -44 -142 -140
-162 -240 -22 -114 6 -213 80 -289 35 -34 74 -51 432 -182 426 -157 465 -166
577 -141 31 7 97 30 148 52 l92 40 84 -28 c125 -42 288 -40 410 6 l56 21 119
-48 c115 -46 121 -47 223 -47 l105 0 230 86 c127 47 301 112 387 144 127 47
165 65 199 97 135 127 112 373 -47 503 -29 23 -58 44 -65 46 -11 4 -9 16 10
55 53 115 14 245 -93 308 -16 9 -15 14 8 65 75 160 -19 350 -173 350 -21 0
-87 -18 -146 -40 -59 -22 -111 -40 -114 -40 -3 0 -4 22 -3 48 l4 48 146 54
c81 29 161 64 179 77 17 12 43 47 58 77 68 139 6 299 -131 343 -62 19 -99 13
-231 -38 l-73 -27 0 64 c0 75 -23 58 178 135 131 50 180 87 216 162 59 120 27
285 -73 376 -42 38 -125 72 -178 73 -33 0 -87 -14 -173 -46 -68 -25 -129 -46
-136 -46 -6 0 -15 20 -19 45 -14 97 -92 203 -180 244 -43 20 -274 110 -365
142 -88 31 -163 33 -245 5z m-190 -176 c-3 -5 -1 -10 4 -10 6 0 11 5 11 11 0
5 5 7 11 3 8 -4 4 -11 -10 -18 -12 -7 -18 -16 -14 -21 4 -4 2 -5 -4 -1 -16 9
-56 -17 -45 -30 4 -5 -3 -1 -14 9 -21 17 -22 17 -28 0 -6 -15 -8 -15 -16 -3
-6 8 -10 12 -11 8 -1 -5 -3 -12 -4 -18 -1 -5 -3 -15 -4 -21 0 -6 -8 -8 -16 -5
-52 21 -50 21 -35 4 8 -9 17 -16 20 -16 22 1 30 -4 24 -14 -5 -8 -2 -9 10 -5
11 4 15 3 11 -4 -4 -6 -13 -8 -21 -5 -8 3 -14 0 -14 -7 -1 -7 -8 0 -16 16 -13
23 -18 26 -35 16 -12 -6 -23 -8 -27 -5 -3 3 0 6 6 6 7 0 11 5 9 12 -1 6 8 16
19 23 12 6 29 17 37 24 9 7 21 10 27 6 5 -3 10 0 11 7 0 10 2 10 6 -1 4 -10 7
-11 13 -1 4 7 18 13 31 14 14 1 23 7 21 15 -1 7 1 10 6 7 4 -2 14 -1 22 5 19
11 23 11 15 -1z m-75 -73 c0 -2 -9 -12 -20 -22 -24 -21 -27 -14 -4 9 15 15 24
20 24 13z m-109 -64 c-12 -20 -14 -14 -5 12 4 9 9 14 11 11 3 -2 0 -13 -6 -23z
m91 -15 c-7 -7 -12 -8 -12 -2 0 14 12 26 19 19 2 -3 -1 -11 -7 -17z m-484
-135 c37 -14 74 -33 82 -41 13 -14 13 -15 -1 -4 -11 8 -25 9 -50 2 -45 -13
-131 -65 -122 -73 3 -4 -1 -7 -11 -7 -11 0 -15 5 -10 13 4 6 3 8 -1 4 -14 -12
-15 -38 -2 -30 7 3 4 -3 -6 -14 -9 -11 -14 -23 -10 -28 5 -4 2 -4 -6 0 -11 6
-13 4 -8 -8 3 -10 2 -17 -3 -17 -6 0 -9 -3 -7 -7 1 -5 -2 -9 -8 -10 -5 -2 -10
1 -10 6 0 5 -4 13 -8 18 -5 4 -8 4 -7 -2 1 -5 2 -17 1 -25 -1 -13 -2 -13 -11
0 -5 9 -5 19 0 26 6 6 6 14 2 19 -4 4 2 5 14 1 13 -4 26 -1 33 8 14 16 7 36
-12 36 -7 0 -6 -4 3 -10 10 -6 11 -13 5 -19 -7 -7 -16 -7 -25 -1 -9 6 -10 10
-3 10 6 0 10 9 8 19 -2 13 1 18 10 15 7 -3 16 0 20 6 3 6 2 9 -3 8 -6 -2 -10
2 -11 7 -1 6 4 11 9 11 6 1 13 3 18 4 4 1 11 2 16 1 5 -1 4 5 -4 13 -9 11 -9
16 -1 16 6 0 14 -7 18 -16 5 -14 7 -14 17 2 15 27 16 45 3 37 -7 -4 -17 -8
-23 -9 -24 -4 -83 -37 -112 -62 -17 -16 -35 -45 -42 -70 -9 -36 -15 -43 -33
-40 -19 3 -22 9 -20 49 3 104 118 207 216 193 15 -3 58 -16 95 -31z m-78 -49
c0 -8 -19 -13 -24 -6 -3 5 1 9 9 9 8 0 15 -2 15 -3z m243 -15 c30 -10 37 -18
36 -39 0 -14 -3 -19 -6 -12 -2 6 -9 12 -14 12 -6 0 -7 -4 -4 -10 3 -5 -1 -10
-10 -10 -9 0 -14 -4 -11 -9 3 -5 -18 0 -47 10 -28 11 -59 22 -67 25 -10 3 -2
13 25 29 22 13 45 22 50 20 6 -1 27 -8 48 -16z m-155 -88 c7 -1 10 -6 6 -12
-4 -7 0 -9 14 -5 18 6 20 3 17 -15 -3 -13 -8 -26 -12 -30 -10 -10 -55 0 -48
10 2 4 -2 19 -9 33 -12 23 -12 26 3 23 9 -2 22 -4 29 -4z m127 -391 c-3 -5 -2
-10 2 -10 5 0 14 5 21 10 9 7 9 7 2 -2 -15 -18 -13 -51 3 -42 7 5 6 0 -3 -11
-11 -14 -12 -19 -3 -22 9 -3 10 -10 3 -22 -5 -10 -7 -20 -5 -23 3 -3 -2 -5
-10 -5 -8 0 -15 4 -15 9 0 5 -4 7 -9 3 -11 -6 -5 78 8 123 1 1 4 2 7 2 3 0 2
-4 -1 -10z m-305 -169 c23 -7 21 -9 -32 -34 -57 -28 -82 -55 -94 -102 -5 -19
-11 -24 -23 -19 -9 3 -21 7 -28 7 -14 0 -7 48 12 87 31 61 90 82 165 61z
m2221 -14 c18 -12 39 -34 46 -47 15 -29 17 -100 4 -100 -5 0 -16 -3 -25 -6
-11 -4 -16 0 -16 11 0 48 -92 134 -146 136 -31 1 36 28 72 29 17 0 46 -10 65
-23z m-2134 -19 c39 -14 42 -24 9 -32 -39 -10 -85 -55 -97 -95 -11 -37 -13
-38 -39 -28 -24 9 -26 14 -20 41 11 49 42 93 75 110 38 19 33 18 72 4z m1993
-3 c69 -35 109 -138 62 -156 -19 -7 -24 -4 -33 19 -17 43 -55 88 -88 102 -17
7 -31 16 -31 20 0 7 32 22 58 29 2 1 16 -6 32 -14z m-1844 -71 c3 -13 12 -28
19 -34 14 -12 9 -50 -7 -50 -5 0 -6 4 -3 10 3 6 -1 7 -9 4 -16 -6 -146 36
-146 47 0 12 104 56 122 51 10 -2 21 -15 24 -28z m1724 15 c57 -35 55 -42 -17
-66 -36 -13 -69 -21 -72 -18 -6 3 -7 49 -2 78 1 7 36 24 51 26 3 1 21 -9 40
-20z m-1847 -115 c26 -9 47 -22 47 -29 0 -7 4 -15 9 -17 5 -1 3 -8 -3 -14 -10
-9 -25 -7 -62 5 -47 17 -50 21 -45 61 1 13 -1 13 54 -6z m2157 2 c0 -2 -7 -7
-16 -10 -8 -3 -12 -2 -9 4 6 10 25 14 25 6z m-261 -22 c4 3 7 -4 7 -15 0 -10
-5 -19 -11 -20 -5 0 -18 -2 -28 -4 -9 -2 -15 1 -11 6 3 5 0 9 -5 9 -6 0 -11 5
-11 11 0 8 6 7 17 -2 15 -12 16 -12 10 4 -4 11 -3 16 3 12 6 -3 10 0 11 7 0
10 2 10 6 0 2 -6 8 -10 12 -8z m-255 -100 c3 -8 2 -12 -4 -9 -6 3 -10 10 -10
16 0 14 7 11 14 -7z m524 -260 c23 -16 42 -52 47 -89 2 -11 4 -24 5 -30 6 -28
-3 -44 -30 -54 -17 -5 -28 -6 -25 -1 3 4 -1 11 -7 14 -7 3 -3 3 10 0 12 -3 22
-1 22 5 0 6 -4 11 -9 11 -5 0 -12 7 -15 16 -5 14 -4 15 8 5 11 -10 14 -5 18
25 2 21 0 38 -7 40 -6 3 -84 -22 -173 -56 -89 -33 -165 -60 -168 -60 -3 0 -3
7 0 16 3 8 2 12 -4 9 -6 -3 -10 -13 -10 -21 0 -8 -5 -14 -11 -14 -7 0 -9 9 -6
21 4 16 3 18 -9 8 -12 -10 -12 -7 -2 17 26 57 35 64 153 108 129 48 178 55
213 30z m-64 -153 c3 -5 -2 -15 -12 -22 -15 -12 -16 -12 -5 2 7 9 10 19 6 22
-3 4 -4 7 0 7 3 0 8 -4 11 -9z m-97 -73 c-3 -8 -6 -5 -6 6 -1 11 2 17 5 13 3
-3 4 -12 1 -19z m-2234 -182 l39 -16 -36 -34 c-20 -18 -36 -39 -36 -45 0 -7
-4 -10 -9 -7 -5 3 -8 -2 -7 -12 2 -28 -38 -22 -42 7 -2 13 0 21 6 17 6 -3 8 2
5 13 -3 10 0 22 6 25 23 15 10 24 -19 14 -29 -10 -66 -59 -53 -71 3 -3 -7 -4
-22 -1 -19 3 -24 1 -19 -7 4 -8 3 -9 -4 -5 -7 4 -10 17 -8 29 3 12 5 27 5 34
2 21 61 82 84 85 26 4 57 -3 110 -26z m97 -66 c0 -5 -2 -10 -4 -10 -3 0 -8 5
-11 10 -3 6 -1 10 4 10 6 0 11 -4 11 -10z m-46 -45 c-18 -15 -18 -15 9 -9 29
7 34 -1 16 -26 -9 -13 -10 -12 -5 3 3 9 1 17 -4 17 -6 0 -10 -5 -10 -11 0 -5
-4 -7 -10 -4 -5 3 -10 1 -10 -4 0 -6 -5 -11 -11 -11 -8 0 -8 5 1 15 7 8 9 15
5 15 -4 0 -2 7 5 15 7 8 17 15 23 15 6 0 2 -7 -9 -15z m-219 -35 c3 -5 1 -10
-4 -10 -6 0 -11 5 -11 10 0 6 2 10 4 10 3 0 8 -4 11 -10z m215 -24 c0 -2 -7
-7 -16 -10 -8 -3 -12 -2 -9 4 6 10 25 14 25 6z"/>
<path d="M1339 3113 c-13 -17 -13 -17 6 -3 11 8 22 16 24 17 2 2 0 3 -6 3 -6
0 -17 -8 -24 -17z"/>
<path d="M1219 3073 c-10 -11 -10 -14 -1 -9 7 4 12 2 12 -4 0 -6 5 -8 11 -4 8
5 8 9 -1 14 -9 6 -9 9 1 13 8 3 9 6 3 6 -6 1 -18 -7 -25 -16z"/>
<path d="M819 2653 c-13 -16 -12 -17 4 -4 9 7 17 15 17 17 0 8 -8 3 -21 -13z"/>
<path d="M2616 1893 c-6 -14 -5 -15 5 -6 7 7 10 15 7 18 -3 3 -9 -2 -12 -12z"/>
</g>
</svg>
